<svg xmlns="http://www.w3.org/2000/svg" viewBox="0 0 48 60">
  <defs>
    <linearGradient id="lg" x1="0" y1="0" x2="0" y2="1">
      <stop offset="0" stop-color="#FFB300"></stop>
      <stop offset="1" stop-color="#DE7800"></stop>
    </linearGradient>
  </defs>
  <path d="M24 57C14.5 45 5 34.6 5 21.5A19 19 0 1 1 43 21.5C43 34.6 33.5 45 24 57Z" fill="#FFFFFF"></path>
  <path d="M24 53.4C16.2 43.2 8 34 8 21.5A16 16 0 1 1 40 21.5C40 34 31.8 43.2 24 53.4Z" fill="url(#lg)"></path>
  <circle cx="24" cy="21.5" r="13" fill="none" stroke="#FFFFFF" stroke-width="1.6" opacity="0.75"></circle>
  <polygon points="24,12.5 26.7,18 32.8,18.7 28.4,22.9 29.5,28.9 24,26 18.5,28.9 19.6,22.9 15.2,18.7 21.3,18" fill="#FFFFFF"></polygon>
</svg>