<svg xmlns="http://www.w3.org/2000/svg" viewBox="0 0 48 60">
  <path d="M24 57C14.5 45 5 34.6 5 21.5A19 19 0 1 1 43 21.5C43 34.6 33.5 45 24 57Z" fill="#FFFFFF"></path>
  <path d="M24 53.4C16.2 43.2 8 34 8 21.5A16 16 0 1 1 40 21.5C40 34 31.8 43.2 24 53.4Z" fill="#667077"></path>
  <g fill="#FFFFFF">
    <circle cx="17.5" cy="17.5" r="2.4"></circle>
    <circle cx="24" cy="15" r="2.5"></circle>
    <circle cx="30.5" cy="17.5" r="2.4"></circle>
    <path d="M24 20.2C27.6 20.2 30 22.8 30 25.2C30 27.4 28.2 28.8 24 28.8C19.8 28.8 18 27.4 18 25.2C18 22.8 20.4 20.2 24 20.2Z"></path>
  </g>
</svg>